# xmcd
#
# Track frame offsets:
#  150
#  12588
#  23853
#  36395
#  48165
#  61292
#  73175
#  83934
#  97020
#  107662
#  119211
#  129940
#  142026
#  154384
#  163982
#  177534
#  187338
#  198491
#  210888
#  221983
#  234041
#  245418
#  258016
#  270523
#  282354
#  294279
#  306544
#  317271
#  331012
#  343069
#
# Disc length: 4743 seconds
#
# Revision: 0
# Processed by: cddbd v1.5.2PL0 Copyright (c) Steve Scherf et al.
# Submitted via: AltoMP3_Maker 3.0
#
DISCID=ce12851e
DTITLE=Various Artist - Capitol Hillbilly, Vol. 5
DYEAR=1900
DGENRE=
TTITLE0=Tommy Collins - High on a Hilltop
TTITLE1=Faron Young - A Place for Girls Like You
TTITLE2=Wynn Stewart - Keeper of the Key
TTITLE3=Bill Dudley - One More Heartbreak
TTITLE4=Hylo Brown - One Way Train
TTITLE5=Lee Bonds - Undecided Heart
TTITLE6=Werley Fairburn - Love Spelled Backwards Is Evol
TTITLE7=Ferlin Huskey - You'll Die a Thousand Times
TTITLE8=Skeets McDonald - Each Time a New Love Dies
TTITLE9=Jean Shepard - Please Don't Divorce Me
TTITLE10=Ray Parks - Just a Hangin' around
TTITLE11=Joe Carson - Crazy Dream
TTITLE12=The Louvin Bros. - My Baby's Gone
TTITLE13=The Farmer Boys - No One
TTITLE14=Jerry Reed - This Great Big Empty Room
TTITLE15=Bobby Bare - Another Love Has Ended
TTITLE16=Jimmy Heap - This Night Won't Last Forever
TTITLE17=Freddie Hart - I'm going Out on the Front Porch and Cry
TTITLE18=Gene O'Quin - I'll Stop Loving You
TTITLE19=Jack Hunt - I Loved You Better Than You Knew
TTITLE20=Jess Willard - Til the Day I Die
TTITLE21=Ramblin' Jimmie Dolan - I'll Make Believe
TTITLE22=Leon Payne - Empty Dreams
TTITLE23=Lee Bonds - No Hope
TTITLE24=Bill Dudley - The Ghost of Our Love Affair
TTITLE25=Jean Shepard - The Glass That Stands beside You
TTITLE26=Red Hayes - Leave Him Alone
TTITLE27=Rod Morris - Everything to Lose, Nothing to Gain
TTITLE28=Texas Bill Strength - Turn Around
TTITLE29=Carl Hayes - Go on with Your Dancing
EXTD=
EXTT0=
EXTT1=
EXTT2=
EXTT3=
EXTT4=
EXTT5=
EXTT6=
EXTT7=
EXTT8=
EXTT9=
EXTT10=
EXTT11=
EXTT12=
EXTT13=
EXTT14=
EXTT15=
EXTT16=
EXTT17=
EXTT18=
EXTT19=
EXTT20=
EXTT21=
EXTT22=
EXTT23=
EXTT24=
EXTT25=
EXTT26=
EXTT27=
EXTT28=
EXTT29=
PLAYORDER=
